<?xml version="1.0" encoding="utf-8"?>
<!-- Generator: Adobe Illustrator 18.0.0, SVG Export Plug-In . SVG Version: 6.00 Build 0)  -->
<!DOCTYPE svg PUBLIC "-//W3C//DTD SVG 1.1//EN" "http://www.w3.org/Graphics/SVG/1.1/DTD/svg11.dtd">
<svg version="1.1" id="Layer_1" xmlns="http://www.w3.org/2000/svg" xmlns:xlink="http://www.w3.org/1999/xlink" x="0px" y="0px"
	 viewBox="0 0 216 216" enable-background="new 0 0 216 216" xml:space="preserve">
<g id="cup">
	<ellipse fill="#FFFFFF" stroke="#000000" stroke-miterlimit="10" cx="107.8" cy="130.4" rx="101" ry="20.6"/>
	<g>
		<g>
			<path d="M169.5,51.1c7.8,1,16,4,22.5,8.4c6.1,4,6.8,16.1,1,20.3c-3.6,2.7-8.7,4.2-13.3,4.7c-1.9,0.2-1.9,3.2,0,3
				c5.3-0.5,12.4-2.5,16.5-6.2c5.3-5,3.9-12.9,2.2-19.1c-2.7-9.2-20.8-13.1-28.6-14.1C167.6,47.9,167.6,50.9,169.5,51.1L169.5,51.1z
				"/>
		</g>
	</g>
	<path fill="#FFFFFF" stroke="#000000" stroke-miterlimit="10" d="M178,25.1c-1.9,0-3.1-0.7-4.1-1.7c-0.2,0-0.5,0-0.7,0
		c-2.7,0-4.4-1.5-5.3-3.2H44.5c-1,1.5-2.4,2.5-4.8,2.5c-0.7,0-1.2,0-1.7-0.2c-2.4,4.2-3.6,9.2-3.6,14.4v71.9
		c0,16.4,13.1,29.7,29.1,29.7h88.4c16,0,29.1-13.4,29.1-29.7V36.7c0-4.2-1-8.2-2.7-11.9C178.2,25.1,178,25.1,178,25.1z"/>
	<ellipse fill="#774438" stroke="#231F20" stroke-miterlimit="10" cx="107.8" cy="24.1" rx="70.5" ry="10.7"/>
</g>
<g id="crabs">
</g>
<g id="hat">
	<text transform="matrix(0.9777 0 0 1 59.2251 202.543)" font-family="'Garamond'" font-size="44.5989">Cafes</text>
</g>
</svg>
