<?xml version="1.0" encoding="utf-8"?>
<!-- Generator: Adobe Illustrator 18.0.0, SVG Export Plug-In . SVG Version: 6.00 Build 0)  -->
<!DOCTYPE svg PUBLIC "-//W3C//DTD SVG 1.1//EN" "http://www.w3.org/Graphics/SVG/1.1/DTD/svg11.dtd">
<svg version="1.1" id="Layer_1" xmlns="http://www.w3.org/2000/svg" xmlns:xlink="http://www.w3.org/1999/xlink" x="0px" y="0px"
	 viewBox="0 0 216 216" enable-background="new 0 0 216 216" xml:space="preserve">
<g id="Layer_2">
	<rect fill="#C0A172" width="216" height="216"/>
</g>
<g id="Layer_1_1_">
	<g id="cup">
		<ellipse fill="#FFFFFF" stroke="#000000" stroke-miterlimit="10" cx="107.8" cy="130.4" rx="101" ry="20.6"/>
		<g>
			<g>
				<path d="M169.5,44c7.8,1.6,16,6.5,22.5,13.6c6.1,6.5,6.8,26,1,32.8c-3.6,4.4-8.7,6.8-13.3,7.6c-1.9,0.3-1.9,5.2,0,4.8
					c5.3-0.8,12.4-4,16.5-10c5.3-8.1,3.9-20.9,2.2-30.9c-2.7-14.9-20.8-21.2-28.6-22.8C167.6,38.8,167.6,43.6,169.5,44L169.5,44z"/>
			</g>
		</g>
		<path fill="#FFFFFF" stroke="#000000" stroke-miterlimit="10" d="M178,25.1c-1.9,0-3.1-0.7-4.1-1.7c-0.2,0-0.5,0-0.7,0
			c-2.7,0-4.4-1.5-5.3-3.2H44.5c-1,1.5-2.4,2.5-4.8,2.5c-0.7,0-1.2,0-1.7-0.2c-2.4,4.2-3.6,9.2-3.6,14.4v71.9
			c0,16.4,13.1,29.7,29.1,29.7h88.4c16,0,29.1-13.4,29.1-29.7V36.7c0-4.2-1-8.2-2.7-11.9C178.2,25.1,178,25.1,178,25.1z"/>
		<ellipse fill="#774438" stroke="#231F20" stroke-miterlimit="10" cx="107.8" cy="24.1" rx="70.5" ry="10.7"/>
	</g>
	<g id="hat">
		<text transform="matrix(0.9777 0 0 1 59.2251 202.543)" font-family="'Garamond'" font-size="44.5989">Cafes</text>
	</g>
</g>
</svg>
