<?xml version="1.0" encoding="utf-8"?>
<!-- Generator: Adobe Illustrator 18.0.0, SVG Export Plug-In . SVG Version: 6.00 Build 0)  -->
<!DOCTYPE svg PUBLIC "-//W3C//DTD SVG 1.1//EN" "http://www.w3.org/Graphics/SVG/1.1/DTD/svg11.dtd">
<svg version="1.1" id="Layer_1" xmlns="http://www.w3.org/2000/svg" xmlns:xlink="http://www.w3.org/1999/xlink" x="0px" y="0px"
	 viewBox="0 0 216 216" enable-background="new 0 0 216 216" xml:space="preserve">
<g id="cup">
</g>
<g id="crabs">
</g>
<g id="hat">
	<g>
		<path fill="#FF0000" d="M81.3,124.2c0,0,40.7,7.1,48.2,0c7.5-7.1-2.4-3.4-2.4-3.4s26,13.9,21.7,10c-4.3-4.2,0.5,8.1,0.5,8.1
			l3.1,5.3c0,0-8.7,2.9-3.1,11.8c5.3,8.7,8,2.4,8,2.4s3.9,1.8,9.6-7.1c5.8-8.9-8-23.9-8-23.9l-9.2-8.7l-14.9-5.3H176l11.8,11
			l10.1,6.3c0,0,7.5-7.1-18.3-25.2L142,109c0,0,26.7-10.5,40.7-12.3l-13.5-5.8c0,0,30.1-13.4,26.3-23.9s-4.8,0-4.8,0l-4.3,1.8
			l-7,5.5L167.6,84l-10.8,0.5c0,0,26.3-13.9,25.8-17.6c-0.5-3.4,4.3-21.5,4.3-21.5l-6.5-13.9l-1,8.1l1.7,6.3v6.3L171.9,64
			l-18.8,13.4l23.1-26.3l-4.8-20l-13.5-16.3L120.8,1l-7,3.4l13.5,11.8l7.5,9.5l11.8,6.3l5.3,7.6l2.7,2.9l2.7,2.9l-2.4,1.8l-3.4,1.8
			l-3.1,1.8l-1.7,1.3l-3.6,1.6l-2.7,4.7v2.9l-4.3-1.8l-4.3-0.5l0,0l-29.9,0.3H91.6l-17.4,2.6L54.5,41.2l34.9-28.6l11.3-4.7V3.6
			L82.5,4.2l-18.8,7.6l-28,21.5l-2.2,7.9l17.6,29.9l0.5,2.9l-12.8-5.8l-5.3-17.1l-2.7-16.3v-4.7L25.1,33v14.7l11.3,26.8L53,81.1v7.4
			l-21.4-7.4L16,47l-2.7,4.2V63L23,81.4c0,0,22.7,14.7,21.9,10c-0.2-1.3,1.4,0.8,1.9,0.8c1.4,0,4.1,1.1,4.1,1.1l-22.4-1.1l-4.8,0.5
			l21,11l9.6,4.7l-24.6,1.1l-16.1,11l-2.7,8.1v4.2l26.7-10l8.7-2.4l10.1,1.8l-5.8,8.7l-7,9.5l1,13.4l7,6.8l10.1-3.9l-1-6.3l-0.5-5.8
			l9.2-10"/>
	</g>
	<text transform="matrix(0.9174 0 0 1 13.5205 209.5938)" font-family="'Garamond'" font-size="47.2798">Restaurants</text>
</g>
</svg>
