<?xml version="1.0" encoding="utf-8"?>
<!-- Generator: Adobe Illustrator 18.0.0, SVG Export Plug-In . SVG Version: 6.00 Build 0)  -->
<!DOCTYPE svg PUBLIC "-//W3C//DTD SVG 1.1//EN" "http://www.w3.org/Graphics/SVG/1.1/DTD/svg11.dtd">
<svg version="1.1" xmlns="http://www.w3.org/2000/svg" xmlns:xlink="http://www.w3.org/1999/xlink" x="0px" y="0px"
	 viewBox="0 0 216 216" enable-background="new 0 0 216 216" xml:space="preserve">
<g id="Layer_2">
	<rect fill="#C0A172" width="220" height="216"/>
</g>
<g id="Layer_1">
	<g id="cup">
		<ellipse fill="#FFFFFF" stroke="#000000" stroke-miterlimit="10" cx="101.7" cy="115.3" rx="71.4" ry="14.2"/>
		<g>
			<g>
				<path d="M145.4,60.5c5.5,0.7,11.3,2.7,15.9,5.8c4.3,2.7,4.8,11.1,0.7,14c-2.6,1.9-6.2,2.9-9.4,3.3c-1.4,0.2-1.4,2.2,0,2.1
					c3.8-0.3,8.7-1.7,11.6-4.3c3.8-3.4,2.7-8.9,1.5-13.2c-1.9-6.3-14.7-9.1-20.2-9.8C144,58.3,144,60.3,145.4,60.5L145.4,60.5z"/>
			</g>
		</g>
		<path fill="#FFFFFF" stroke="#000000" stroke-miterlimit="10" d="M151.3,42.5c-1.4,0-2.2-0.5-2.9-1.2c-0.2,0-0.3,0-0.5,0
			c-1.9,0-3.1-1-3.8-2.2H57.1c-0.7,1-1.7,1.7-3.4,1.7c-0.5,0-0.9,0-1.2-0.2c-1.7,2.9-2.6,6.3-2.6,9.9v49.6
			c0,11.3,9.2,20.5,20.5,20.5h62.5c11.3,0,20.5-9.2,20.5-20.5V50.6c0-2.9-0.7-5.6-1.9-8.2C151.5,42.5,151.3,42.5,151.3,42.5z"/>
		<ellipse fill="#774438" stroke="#231F20" stroke-miterlimit="10" cx="101.7" cy="41.8" rx="49.8" ry="7.4"/>
	</g>
	<g id="crabs">
	</g>
	<g id="hat">
		<g>
			<path fill="#FF0000" d="M93,97.8c0,0,15.9,2.6,18.8,0c2.9-2.6-0.9-1.2-0.9-1.2s10.1,5,8.4,3.6s0.2,2.9,0.2,2.9l1.2,1.9
				c0,0-3.4,1-1.2,4.1s3.1,0.9,3.1,0.9s1.5,0.7,3.8-2.6s-3.1-8.6-3.1-8.6l-3.6-3.1l-5.8-1.9H130l4.6,3.9l3.9,2.2
				c0,0,2.9-2.6-7.2-9.1l-14.7,1.2c0,0,10.4-3.8,15.9-4.4l-5.3-2.1c0,0,11.6-4.8,10.3-8.6c-1.5-3.8-1.9,0-1.9,0l-1.7,0.7l-2.7,2.1
				l-4.6,3.4l-4.1,0.2c0,0,10.3-5,10.1-6.3c-0.2-1.2,1.7-7.7,1.7-7.7l-2.6-5l-0.3,2.9l0.7,2.2v2.2l-3.6,4.1l-7.4,4.8l9.1-9.4
				l-1.9-7.2l-5.5-5.8l-14.4-5l-2.7,1.2l5.3,4.1l2.9,3.4l4.6,2.2l2.1,2.7l1,1l1,1l-0.9,0.7l-1.4,0.7l-1.2,0.7l-0.7,0.5l-1.4,0.5
				l-1,1.7v1l-1.7-0.7l-1.7-0.2l0,0H101h-3.9l-6.8,1l-7.7-7.4l13.5-10.3l4.4-1.7v-1.5l-7.2,0.2L86,57.1l-11,7.7l-0.9,2.7L81,78.1
				l0.2,1l-4.6-1.4l-2.1-6l-1-5.8v-1.7l-2.2,1v5.3l4.4,9.6l6.5,2.4v2.7l-8.4-2.7l-6-12.2l-1,1.5v3.9l3.8,6.5c0,0,8.9,5.3,8.6,3.6
				c0-0.5,0.5,0.2,0.7,0.2c0.7,0,1.5,0.3,1.5,0.3l-9.1-0.3l-1.9,0.2l8.2,3.9l3.8,1.7l-9.6,0.3l-6.3,4.1l-1,2.9v1.5l10.4-3.6l3.4-0.9
				l3.9,0.7l-2.2,3.1l-2.7,3.4l0.3,4.8l2.7,2.6l3.9-1.4l-0.3-2.2l-0.2-2.1l3.6-3.6"/>
			<g>
				<path fill="#050505" d="M110.3,76.8H96.1c-1.9,0-3.3-1.5-3.3-3.3v-3.8c0-1.9,1.5-3.3,3.3-3.3h14.2c1.9,0,3.3,1.5,3.3,3.3v3.8
					C113.7,75.2,112.2,76.8,110.3,76.8z"/>
				<ellipse fill="#FF761A" cx="103.8" cy="66.1" rx="3.1" ry="1"/>
			</g>
			<ellipse fill="#FF761A" cx="99.5" cy="76.1" rx="10.1" ry="2.2"/>
		</g>
		<text transform="matrix(1 0 0 1 13.2416 168.3161)" font-family="'Garamond'" font-size="30.8049">Baltimore Treats</text>
	</g>
</g>
</svg>
